<?xml version="1.0" standalone="no"?>
<!DOCTYPE svg PUBLIC "-//W3C//DTD SVG 20010904//EN"
 "http://www.w3.org/TR/2001/REC-SVG-20010904/DTD/svg10.dtd">
<svg version="1.0" xmlns="http://www.w3.org/2000/svg"
 width="512.000000pt" height="512.000000pt" viewBox="0 0 512.000000 512.000000"
 preserveAspectRatio="xMidYMid meet">

<g transform="translate(0.000000,512.000000) scale(0.100000,-0.100000)"
fill="#7fff05" stroke="none">
<path d="M2220 5111 c-118 -37 -171 -114 -178 -258 l-4 -93 -372 0 c-286 0
-385 -4 -431 -15 -169 -40 -300 -145 -380 -304 -57 -114 -55 -25 -55 -2057 0
-1284 3 -1889 11 -1930 38 -213 230 -405 443 -443 83 -15 2529 -15 2612 0 213
38 405 230 443 443 8 41 11 647 11 1935 0 2082 4 1937 -68 2075 -48 92 -136
180 -228 228 -121 64 -153 68 -570 68 l-372 0 -4 93 c-6 128 -42 192 -138 243
-32 17 -64 19 -365 21 -181 1 -341 -2 -355 -6z m422 -138 c73 -74 21 -203 -82
-203 -69 0 -128 69 -116 138 6 37 37 78 71 93 36 16 96 3 127 -28z m-1052
-841 c0 -347 3 -369 69 -444 21 -24 60 -54 87 -68 l49 -25 765 0 765 0 49 25
c27 14 66 44 87 68 66 75 69 96 69 445 l0 309 153 -4 c169 -4 186 -9 250 -74
72 -75 67 77 67 -1982 0 -1379 -3 -1865 -12 -1893 -16 -55 -73 -118 -132 -145
l-51 -24 -1245 0 -1245 0 -51 24 c-59 27 -116 90 -132 145 -9 28 -12 514 -12
1893 0 2016 -3 1906 53 1968 71 78 105 89 280 90 l137 0 0 -308z m1628 31 l2
-253 -660 0 -660 0 0 248 c0 137 3 252 7 255 3 4 299 6 657 5 l651 -3 3 -252z"/>
<path d="M1994 3034 l-43 -45 -16 24 c-31 48 -77 57 -296 57 -225 0 -253 -6
-289 -65 -19 -30 -20 -49 -20 -271 0 -345 -10 -334 315 -334 240 0 260 4 295
63 17 27 20 51 20 157 l0 126 90 108 c50 60 93 118 96 131 7 27 -18 80 -41 89
-41 15 -69 6 -111 -40z m-136 -66 c7 -7 12 -28 12 -47 0 -27 -11 -47 -52 -95
-29 -34 -60 -66 -68 -73 -27 -22 -68 -15 -107 20 -83 73 -112 82 -157 46 -23
-18 -27 -28 -24 -62 3 -37 11 -48 115 -144 141 -130 151 -132 235 -41 l58 63
0 -68 c0 -63 -2 -68 -26 -77 -14 -6 -103 -10 -199 -10 -96 0 -185 4 -199 10
l-26 10 0 228 c0 164 3 231 12 240 17 17 409 17 426 0z"/>
<path d="M2410 2777 c-38 -19 -55 -61 -40 -98 7 -16 21 -34 31 -39 11 -6 279
-10 691 -10 665 0 675 0 696 20 32 30 33 82 1 115 -19 20 -34 20 -687 22 -525
2 -672 0 -692 -10z"/>
<path d="M1989 2159 c-44 -48 -48 -50 -58 -31 -24 44 -65 52 -286 52 -231 0
-259 -6 -295 -65 -19 -30 -20 -49 -20 -271 0 -345 -10 -334 315 -334 240 0
257 4 294 63 19 30 21 50 21 169 l0 134 90 107 c49 59 92 118 96 131 7 28 -18
81 -41 90 -43 16 -69 6 -116 -45z m-131 -81 c23 -23 12 -60 -35 -117 -92 -110
-111 -114 -202 -41 -68 55 -95 61 -135 29 -20 -15 -26 -29 -26 -58 0 -38 23
-65 177 -204 76 -69 104 -66 177 16 l57 62 -3 -80 -3 -80 -220 0 -220 0 -3
234 c-2 181 1 236 10 243 22 13 412 10 426 -4z"/>
<path d="M2402 1993 c-21 -8 -43 -61 -36 -87 3 -14 15 -33 26 -43 19 -17 58
-18 672 -21 458 -2 662 0 689 8 28 8 42 19 52 42 15 37 3 83 -25 98 -19 10
-1353 13 -1378 3z"/>
<path d="M1988 1281 l-44 -49 -31 29 c-42 37 -80 41 -303 37 -284 -5 -280 1
-280 -338 0 -253 3 -270 59 -309 27 -20 42 -21 256 -21 214 0 229 1 256 21 51
36 59 64 59 214 l0 137 73 86 c132 157 136 166 96 216 -16 20 -29 26 -59 26
-33 0 -44 -7 -82 -49z m-130 -83 c7 -7 12 -22 12 -33 0 -29 -113 -161 -145
-169 -30 -8 -70 11 -105 49 -69 75 -160 57 -160 -32 0 -15 8 -37 18 -49 38
-46 195 -186 220 -195 38 -15 74 5 124 67 l43 54 3 -77 c2 -64 0 -80 -14 -90
-22 -16 -385 -18 -415 -3 -18 10 -19 24 -19 238 0 164 3 231 12 240 17 17 409
17 426 0z"/>
<path d="M2394 1197 c-20 -17 -27 -33 -27 -57 0 -24 7 -40 27 -57 l27 -23 669
0 669 0 27 23 c37 33 37 81 0 114 l-27 23 -669 0 -669 0 -27 -23z"/>
</g>
</svg>
